<svg width="178" height="58" viewBox="0 0 178 58" fill="none" xmlns="http://www.w3.org/2000/svg">
<path d="M174.549 29.0536C174.396 31.611 173.757 33.9212 172.632 35.984C171.496 38.0077 169.982 39.7135 168.09 41.1014C166.197 42.4892 163.979 43.5239 161.435 44.2054C157.718 45.2015 154.275 45.2643 151.106 44.394C147.937 43.5236 145.211 41.8007 142.927 39.2253C140.643 36.6499 138.946 33.2883 137.834 29.1406C136.723 24.9929 136.512 21.2329 137.202 17.8606C137.892 14.4884 139.392 11.6331 141.701 9.29491C144.01 6.95668 147.004 5.29478 150.682 4.30922C153.226 3.62772 155.609 3.36653 157.832 3.52565C160.095 3.6743 162.139 4.25897 163.964 5.2797C165.789 6.30042 167.376 7.76243 168.725 9.66573L163.505 13.8954C162.104 11.7964 160.518 10.4179 158.748 9.75986C156.968 9.06266 154.884 9.03384 152.497 9.67341C150.11 10.313 148.169 11.4413 146.673 13.0583C145.177 14.6754 144.209 16.6963 143.768 19.121C143.366 21.5352 143.58 24.2879 144.408 27.3791C145.226 30.4312 146.398 32.9271 147.924 34.8667C149.44 36.7672 151.23 38.0489 153.295 38.7118C155.36 39.3748 157.625 39.376 160.09 38.7154C162.477 38.0759 164.369 36.9189 165.765 35.2446C167.191 33.5206 167.945 31.3265 168.028 28.6621L174.549 29.0536Z" fill="white"/>
<path d="M140.033 56.9668H133.167L129.339 46.4545H112.507L108.679 56.9668H101.995L117.125 16.8622H124.903L140.033 56.9668ZM114.33 41.168H127.516L120.953 22.4525L114.33 41.168Z" fill="white"/>
<path d="M95.4559 38.6362C96.8332 38.6362 97.927 39.0413 98.7372 39.8515C99.5879 40.6211 100.013 41.6744 100.013 43.0112C100.013 44.348 99.5879 45.4215 98.7372 46.2317C97.927 47.0419 96.8332 47.447 95.4559 47.447C94.0381 47.447 92.9038 47.0419 92.0531 46.2317C91.2429 45.4215 90.8378 44.348 90.8378 43.0112C90.8378 41.6744 91.2429 40.6211 92.0531 39.8515C92.9038 39.0413 94.0381 38.6362 95.4559 38.6362Z" fill="white"/>
<path d="M90.7973 4.2029C93.6735 4.2029 96.1445 4.70927 98.2105 5.72201C100.317 6.73475 101.958 8.17285 103.132 10.0363C104.307 11.8997 104.895 14.148 104.895 16.7812C104.895 19.3738 104.307 21.6221 103.132 23.526C101.958 25.3895 100.317 26.8276 98.2105 27.8403C96.1445 28.8531 93.6735 29.3594 90.7973 29.3594H81.8649V44.3075H75.3631V4.2029H90.7973ZM89.7643 23.7691C92.6405 23.7691 94.747 23.1817 96.0838 22.0069C97.4611 20.7916 98.1498 19.0497 98.1498 16.7812C98.1498 14.4721 97.4611 12.7302 96.0838 11.5554C94.747 10.3401 92.6405 9.73247 89.7643 9.73247H81.8649V23.7691H89.7643Z" fill="white"/>
<path d="M68.5485 18.3869L58.1686 57.1249L51.8884 55.4421L62.2682 16.7041L68.5485 18.3869Z" fill="white"/>
<path d="M11.7883 44.3075L0 4.2029H6.86639L15.8595 38.6564L24.6096 4.2029H31.2938L40.1046 38.7172L49.037 4.2029H55.6603L43.9328 44.3075H36.2764L29.8962 20.2447L27.8909 11.0085H27.8302L25.8249 20.2447L19.5054 44.3075H11.7883Z" fill="white"/>
</svg>
